<?xml version="1.0" standalone="no"?><!DOCTYPE svg PUBLIC "-//W3C//DTD SVG 1.1//EN" "http://www.w3.org/Graphics/SVG/1.1/DTD/svg11.dtd"><svg t="1635637560052" class="icon" viewBox="0 0 1024 1024" version="1.1" xmlns="http://www.w3.org/2000/svg" p-id="2059" width="32" height="32" xmlns:xlink="http://www.w3.org/1999/xlink"><defs><style type="text/css"></style></defs><path d="M763.2 720c-28.8-8-83.2-22.4-108.8-32-28.8-11.2-54.4-22.4-80-35.2 56-43.2 97.6-94.4 128-153.6v-14.4c0-20.8-17.6-36.8-36.8-36.8h-112v-68.8H704c16 0 28.8-12.8 28.8-28.8S720 320 704 320h-150.4v-33.6c0-17.6-14.4-30.4-30.4-30.4s-30.4 14.4-30.4 30.4V320h-144c-16 0-28.8 12.8-28.8 28.8s12.8 28.8 28.8 28.8h144v68.8h-144c-14.4 0-27.2 12.8-27.2 27.2s12.8 27.2 27.2 27.2h11.2l3.2 9.6c9.6 25.6 22.4 48 38.4 68.8 20.8 27.2 44.8 51.2 73.6 73.6-52.8 28.8-115.2 51.2-187.2 68.8-9.6 3.2-14.4 14.4-9.6 22.4l11.2 17.6c6.4 9.6 17.6 14.4 28.8 11.2 49.6-12.8 161.6-57.6 208-86.4 25.6 16 52.8 28.8 83.2 43.2 40 16 80 30.4 123.2 43.2 9.6 3.2 19.2-1.6 25.6-9.6l14.4-20.8c4.8-8 0-19.2-9.6-22.4z m-238.4-97.6c-24-16-44.8-33.6-64-54.4-19.2-19.2-33.6-41.6-43.2-67.2h217.6l-4.8 11.2c-25.6 41.6-60.8 78.4-105.6 110.4z" p-id="2060"></path><path d="M928 864h-32V192c0-52.8-43.2-96-96-96H224c-52.8 0-96 43.2-96 96v672H96c-17.6 0-32 14.4-32 32s14.4 32 32 32h832c17.6 0 32-14.4 32-32s-14.4-32-32-32zM192 192c0-17.6 14.4-32 32-32h576c17.6 0 32 14.4 32 32v672H192V192z" p-id="2061"></path></svg>