<?xml version="1.0" standalone="no"?><!DOCTYPE svg PUBLIC "-//W3C//DTD SVG 1.1//EN" "http://www.w3.org/Graphics/SVG/1.1/DTD/svg11.dtd"><svg t="1637004681124" class="icon" viewBox="0 0 1024 1024" version="1.1" xmlns="http://www.w3.org/2000/svg" p-id="3879" xmlns:xlink="http://www.w3.org/1999/xlink" width="32" height="32"><defs><style type="text/css"></style></defs><path d="M512 1024c-56.096-89.344-97.184-137.728-123.296-145.184C201.216 825.248 64 652.672 64 448 64 200.576 264.576 0 512 0s448 200.576 448 448c0 203.168-135.232 374.72-320.608 429.632-26.88 7.968-69.376 56.768-127.392 146.368z m131.456-268.48v-47.776H286.4v47.776a47.68 47.68 0 0 0 47.584 47.808h261.824c12.64 0 24.736-5.024 33.664-14.016 8.928-8.96 13.952-21.12 13.952-33.792z m0-71.68v-23.904H286.4v23.904h357.024z m0-47.776V158.144c0-12.704-5.024-24.832-13.952-33.792a47.52 47.52 0 0 0-33.664-14.016H334.016c-12.608 0-24.736 5.024-33.664 14.016-8.928 8.96-13.92 21.12-13.92 33.792v477.92h357.024zM381.632 158.144h166.592c31.744 0 47.616 15.904 47.616 47.776v143.36c0 31.872-15.872 47.808-47.616 47.808H381.632c-31.744 0-47.616-15.936-47.616-47.776v-143.36c0-31.904 15.872-47.808 47.616-47.808z m288.704 513.28c90.688-24.384 139.712-59.264 152.576-104.192 7.136-30.336-5.248-54.976-19.744-83.648a367.36 367.36 0 0 1-28.096-66.176 311.808 311.808 0 0 1-12.608-99.424 12 12 0 0 0 0-8.128c0.64-26.144 3.904-52.16 9.76-77.632v-3.616a6.72 6.72 0 0 0 0-2.144 22.56 22.56 0 0 0 0-2.144 9.824 9.824 0 0 0-1.216-2.144l-1.408-1.664-1.92-1.44-95.2-47.808a11.872 11.872 0 0 0-17.12 11.584c0.288 4.256 2.816 8.064 6.656 9.92l32.832 16.512a11.52 11.52 0 0 0-3.808 8.576v119.488a12.448 12.448 0 0 0 5.728 11.488 11.392 11.392 0 0 0 6.176 1.664 12.8 12.8 0 0 0 5.248-1.184l29.024-16.256c0.352 30.848 4.992 61.472 13.824 91.04 7.68 24.128 17.568 47.488 29.504 69.76 14.048 27.52 23.072 45.664 17.856 67.168-8.576 35.84-53.792 65.216-134.24 86.976a11.68 11.68 0 0 0-8.32 14.592c1.376 5.184 6.08 8.8 11.392 8.832h3.104zM714.88 317.984V219.296l34.528 16.96c-5.6 23.072-9.184 46.592-10.72 70.272l-23.808 11.456z" p-id="3880" fill="#1296db"></path></svg>