<?xml version="1.0" standalone="no"?><!DOCTYPE svg PUBLIC "-//W3C//DTD SVG 1.1//EN" "http://www.w3.org/Graphics/SVG/1.1/DTD/svg11.dtd"><svg t="1636831021966" class="icon" viewBox="0 0 1024 1024" version="1.1" xmlns="http://www.w3.org/2000/svg" p-id="39003" xmlns:xlink="http://www.w3.org/1999/xlink" width="32" height="32"><defs><style type="text/css"></style></defs><path d="M512 451.1m-250 0a250 250 0 1 0 500 0 250 250 0 1 0-500 0Z" fill="#27AFFF" p-id="39004"></path><path d="M537.6 307.2v-8c0-5.8-4.8-10.5-10.6-10.5h-30.2c-5.8 0-10.5 4.7-10.6 10.5v8C423.3 319 375.9 374 375.9 439.8c0 53 30.8 99 75.6 121v-0.1l14.6-29c-34-16.8-57.5-51.6-57.5-91.9 0-56.6 46.2-102.5 103.3-102.5 57.1 0 103.3 45.9 103.3 102.5 0 40.2-23.4 75-57.3 91.8l14.6 29.2c44.9-22.1 75.6-67.9 75.6-121 0-65.8-47.6-120.7-110.5-132.6z" fill="#FFFFFF" p-id="39005"></path><path d="M589.2 594.9s-49.6-10.4-60-13.2C518.7 578.9 518 564 518 564v-83.1c0-10.3 8.7-12.5 8.7-12.5l28.5-8.9v-32c0-8.7-7.1-15.9-15.8-15.9H476c-8.7 0-15.8 7.1-15.8 15.9v32.1l28.5 8.8s8.7 2.4 8.7 12.5V564s-0.8 14.9-11.2 17.7c-10.4 2.8-60 13.2-60 13.2s-6.3 1.7-6.3 4.6v13.9h175.6v-13.9c-0.1-2.7-6.3-4.6-6.3-4.6z" fill="#FFFFFF" p-id="39006"></path><path d="M512 822.9l-67.1-147.2h134.2z" fill="#27AFFF" p-id="39007"></path></svg>